<svg xmlns="http://www.w3.org/2000/svg" viewBox="0 0 123.53 111.63"><defs><style>.cls-1{fill:#8cc63e;}.cls-2{fill:#019348;}.cls-3{fill:#7ac943;}.cls-4{fill:#fff;}</style></defs><title>资源 6</title><g id="图层_2" data-name="图层 2"><g id="图层_1-2" data-name="图层 1"><path class="cls-1" d="M29.35,73.76c-14-2,12.71-51.05,27-49,4.78.68,8,8,9,17s-.23,15.42,3,17c3.79,1.84,15.38-13.85,21-12,6,2-2.79,21.08,7,28,5.8,4.09,12,1,15-4,4.43-7.38,2.5-32.5-11-45C86,12.46,71.06,10.42,64.85,10.26c-18.5-.5-36,9-45.5,27.5-8.18,15.93-8.62,40.86,2,53,7,8-2,12.94-6,12C4.48,100.19-3.86,74.39,1.85,49.26c5-22,18.6-34.67,30-41a64.35,64.35,0,0,1,57-3c8.42,3.7,21.68,13.84,28.5,27.5,10,20,8,44-7,50-8.81,3.52-17.6.55-23-7-5-7-2-16-4-17s-11.58,12.54-18,13c-14,1-4.5-38.5-9-39-3.29-.37-13.34,22.85-17,32C37.35,69.76,34.68,74.52,29.35,73.76Z"/><path class="cls-2" d="M28.36,80.53c-3,3,6.49,27.73,32.71,30.72,24.7,2.83,43.28-11.08,37.74-18.63-5.12-7-14.59,9.57-37.74,8.56C39.87,100.26,31.37,77.51,28.36,80.53Z"/><path class="cls-3" d="M45.71,22.43c-2.55-2.26,2.82-4.77,7.22-5.34s11.82,1.73,9.58,4.18c-1,1.13-4.37-1.64-8.77-1.06C50.2,20.67,46.54,23.17,45.71,22.43Z"/><path class="cls-4" d="M5.09,80.62A23.8,23.8,0,0,0,10.92,97.4c4.61,5.49,8.94,2.12,8.94,2.12a14.85,14.85,0,0,1-6.38-3.67C7.3,89.51,5.09,80.61,5.09,80.62Z"/></g></g></svg>